<?xml version="1.0" encoding="UTF-8" standalone="no"?>
<!-- Created with Inkscape (http://www.inkscape.org/) -->

<svg
   xmlns:dc="http://purl.org/dc/elements/1.1/"
   xmlns:cc="http://creativecommons.org/ns#"
   xmlns:rdf="http://www.w3.org/1999/02/22-rdf-syntax-ns#"
   xmlns:svg="http://www.w3.org/2000/svg"
   xmlns="http://www.w3.org/2000/svg"
   xmlns:xlink="http://www.w3.org/1999/xlink"
   xmlns:sodipodi="http://sodipodi.sourceforge.net/DTD/sodipodi-0.dtd"
   xmlns:inkscape="http://www.inkscape.org/namespaces/inkscape"
   width="192"
   height="192"
   viewBox="0 0 192 192"
   id="svg5601"
   version="1.1"
   inkscape:version="0.91 r13725"
   sodipodi:docname="morning-round.svg"
   style="shape-rendering:crispEdges">
  <sodipodi:namedview
     id="base"
     pagecolor="#ffffff"
     bordercolor="#666666"
     borderopacity="1.0"
     inkscape:pageopacity="0.0"
     inkscape:pageshadow="2"
     inkscape:zoom="2.8284271"
     inkscape:cx="74.200193"
     inkscape:cy="80.635762"
     inkscape:document-units="px"
     inkscape:current-layer="layer1"
     showgrid="true"
     units="px"
     showborder="true"
     inkscape:window-width="1440"
     inkscape:window-height="877"
     inkscape:window-x="1358"
     inkscape:window-y="-8"
     inkscape:window-maximized="1"
     inkscape:snap-grids="false"
     inkscape:snap-bbox="true"
     inkscape:snap-intersection-paths="true"
     inkscape:object-paths="true"
     showguides="true"
     inkscape:guide-bbox="true">
    <inkscape:grid
       empspacing="16"
       id="grid6149"
       type="xygrid"
       visible="false" />
  </sodipodi:namedview>
  <defs
     id="defs5603">
    <linearGradient
       id="linearGradient6157"
       inkscape:collect="always">
      <stop
         id="stop6159"
         offset="0"
         style="stop-color:#4fc3f7;stop-opacity:1" />
      <stop
         id="stop6161"
         offset="1"
         style="stop-color:#039be5;stop-opacity:1" />
    </linearGradient>
    <linearGradient
       gradientUnits="userSpaceOnUse"
       y2="972.36218"
       x2="96"
       y1="892.36218"
       x1="96"
       id="linearGradient6163"
       xlink:href="#linearGradient6157"
       inkscape:collect="always" />
    <linearGradient
       gradientTransform="translate(0,-860.36216)"
       y2="972.36218"
       x2="96"
       y1="892.36218"
       x1="96"
       gradientUnits="userSpaceOnUse"
       id="linearGradient6262"
       xlink:href="#linearGradient6157"
       inkscape:collect="always" />
  </defs>
  <metadata
     id="metadata5606">
    <rdf:RDF>
      <cc:Work
         rdf:about="">
        <dc:format>image/svg+xml</dc:format>
        <dc:type
           rdf:resource="http://purl.org/dc/dcmitype/StillImage" />
        <dc:title></dc:title>
      </cc:Work>
    </rdf:RDF>
  </metadata>
  <g
     transform="translate(0,-860.36216)"
     id="layer1"
     inkscape:groupmode="layer"
     inkscape:label="Layer 1">
    <rect
       rx="12"
       y="880.36218"
       x="20"
       height="152"
       width="152"
       id="rect6151"
       style="opacity:1;fill:url(#linearGradient6163);fill-opacity:1;fill-rule:nonzero;stroke:none;stroke-width:4;stroke-linejoin:miter;stroke-miterlimit:4;stroke-dasharray:none;stroke-opacity:1" />
    <path
       id="rect6199"
       d="M 111.39648 106.22461 C 108.93761 106.21943 106.50301 107.28155 104.3418 109.4082 C 101.3004 112.40097 99.408391 115.99562 94.412109 128.29102 C 92.601322 132.7472 90.575405 136.89766 89.097656 139.17578 C 87.495825 141.64519 84.985799 144.10529 83.152344 145.00195 C 80.886428 146.11011 79.750495 146.33401 76.457031 146.32031 C 73.878117 146.30959 73.395871 146.25352 71.898438 145.80273 C 67.686796 144.53487 64.759894 142.66267 58.230469 137.05859 C 51.491395 131.27456 49.814913 130.31477 45.201172 129.59375 C 42.537324 129.17745 35.182355 129.02402 31.060547 129.29883 C 27.783617 129.51731 21.282115 130.17502 20.503906 130.36719 L 20.083984 130.4707 L 20.083984 151.19531 L 20.083984 161.37305 C 20.712006 166.92628 25.095493 171.30352 30.652344 171.91992 L 95.992188 171.91992 L 161.34766 171.91992 C 166.83188 171.31158 171.16642 167.03787 171.88281 161.58789 C 171.86539 158.04491 171.81738 155.17578 171.74805 155.17578 C 171.66492 155.17578 170.88971 155.41487 170.02539 155.70703 C 167.97659 156.39956 164.87489 157.12548 162.31641 157.51367 C 159.82852 157.89114 154.39937 157.94657 152.27148 157.61523 C 148.71534 157.06149 144.95342 155.81975 142.55078 154.40625 C 141.12468 153.56726 138.72614 151.14368 137.50977 149.31445 C 135.30055 145.99215 133.17107 141.11916 129.66797 131.36133 C 124.91681 118.12706 122.29957 112.94537 118.59375 109.4375 C 116.33726 107.30156 113.85536 106.22979 111.39648 106.22461 z "
       style="opacity:1;fill:#29b6f6;fill-opacity:1;fill-rule:nonzero;stroke:none;stroke-width:4;stroke-linejoin:miter;stroke-miterlimit:4;stroke-dasharray:none;stroke-opacity:1"
       transform="translate(0,860.36216)" />
    <path
       style="color:#000000;font-style:normal;font-variant:normal;font-weight:normal;font-stretch:normal;font-size:medium;line-height:normal;font-family:sans-serif;text-indent:0;text-align:start;text-decoration:none;text-decoration-line:none;text-decoration-style:solid;text-decoration-color:#000000;letter-spacing:normal;word-spacing:normal;text-transform:none;direction:ltr;block-progression:tb;writing-mode:lr-tb;baseline-shift:baseline;text-anchor:start;white-space:normal;clip-rule:nonzero;display:inline;overflow:visible;visibility:visible;opacity:1;isolation:auto;mix-blend-mode:normal;color-interpolation:sRGB;color-interpolation-filters:linearRGB;solid-color:#000000;solid-opacity:1;fill:#fffafa;fill-opacity:1;fill-rule:evenodd;stroke:none;stroke-width:4;stroke-linecap:square;stroke-linejoin:miter;stroke-miterlimit:4;stroke-dasharray:none;stroke-dashoffset:0;stroke-opacity:1;color-rendering:auto;image-rendering:auto;shape-rendering:auto;text-rendering:auto;enable-background:accumulate"
       d="m 112.0957,962.55078 c -5.2327,-0.25128 -9.35341,2.41473 -12.343747,6.16992 -2.990336,3.7552 -5.123784,8.61333 -7.119141,13.49024 -1.995356,4.87691 -3.842638,9.7847 -5.96289,13.51562 -2.120252,3.73092 -4.389873,6.09014 -7.097656,6.68164 -6.264949,1.3686 -10.910326,-1.5566 -15.714844,-5.53515 -4.804518,-3.97859 -9.337799,-9.06489 -15.410156,-10.46094 -5.582757,-1.28349 -12.670669,-1.16091 -18.464844,-0.77539 -5.794175,0.38552 -10.285156,1.07617 -10.285156,1.07617 l 0.146484,0.0527 0.107422,3.95508 0.351562,-0.0547 c 0,0 4.329383,-0.66346 9.945313,-1.03711 5.615929,-0.37366 12.527862,-0.41657 17.304687,0.68164 4.287225,0.98564 8.683987,5.44617 13.753907,9.64453 5.06992,4.19832 11.243376,8.08222 19.121093,6.36132 4.36355,-0.9532 7.356449,-4.453 9.720704,-8.61328 2.364254,-4.16028 4.223784,-9.17699 6.1875,-13.97656 1.963715,-4.79957 4.040232,-9.36833 6.544922,-12.51367 2.50469,-3.14534 5.16377,-4.85136 9.02344,-4.66601 3.7998,0.18247 6.68061,2.37254 9.33984,6.15624 2.65923,3.78371 4.87048,9.0618 6.91602,14.60938 2.04553,5.54758 3.93773,11.35572 6.16992,16.3145 2.23219,4.9587 4.75433,9.1937 8.64062,11.291 13.7367,7.4132 28.96289,0.07 28.96289,0.07 l 0.0801,-0.4336 0.006,-3.7832 -0.82812,0.5586 c 0,0 -14.76106,6.3065 -26.32032,0.068 -2.4377,-1.3155 -4.79521,-4.7529 -6.89257,-9.4121 -2.09737,-4.65919 -3.98386,-10.41392 -6.06446,-16.05661 -2.0806,-5.6427 -4.34197,-11.18121 -7.39648,-15.52735 -3.05452,-4.34613 -7.1293,-7.5974 -12.42188,-7.85156 z"
       mask="none"
       id="path6165"
       inkscape:connector-curvature="0"
       sodipodi:nodetypes="csssssssccccsssssssssssscccccssscc" />
    <path
       style="opacity:1;fill:#a9a9a9;fill-opacity:1;fill-rule:nonzero;stroke:none;stroke-width:4;stroke-linejoin:miter;stroke-miterlimit:4;stroke-dasharray:none;stroke-opacity:1"
       d="M 32 20 C 25.352 20 20 25.352 20 32 L 20 96 L 172 96 L 172 32 C 172 25.352 166.648 20 160 20 L 32 20 z "
       id="rect6366"
       transform="translate(0,860.36216)" />
    <g
       id="g6322">
      <path
         style="opacity:0.98000004;fill:url(#linearGradient6262);fill-opacity:1;fill-rule:nonzero;stroke:none;stroke-width:4;stroke-linejoin:miter;stroke-miterlimit:4;stroke-dasharray:none;stroke-opacity:1"
         d="M23.1648076148 32.0594882023C15.6133819918 32.0633175229 10.3647875763 37.1373074887 11.3739831862 43.302607044C11.3739831862 43.302607044 20.0 96.0 20.0 96.0C20.0 96.0 172.0 96.0 172.0 96.0C172.0 96.0 180.572284064 43.2318870195 180.572284064 43.2318870195C181.575345966 37.0573735123 176.30563829 31.9818306375 168.735859237 31.9856692651C168.735859237 31.9856692651 23.1648076148 32.0594882023 23.1648076148 32.0594882023C23.1648076148 32.0594882023 23.1648076148 32.0594882023 23.1648076148 32.0594882023"
         transform="translate(0,860.36216)"
         id="rect6217" />
      <path
         id="path6223"
         transform="translate(0,860.36216)"
         style="font-style:normal;font-variant:normal;font-weight:normal;font-stretch:normal;font-size:medium;line-height:125%;font-family:sans-serif;-inkscape-font-specification:'sans-serif, Normal';text-align:start;letter-spacing:0px;word-spacing:0px;writing-mode:lr-tb;text-anchor:start;fill:#ffffff;fill-opacity:1;stroke:#ffffff;stroke-width:1px;stroke-linecap:butt;stroke-linejoin:miter;stroke-opacity:1"
         d="M73.1375784384 56.3704767912C70.3306730103 56.3713586341 68.31001485 57.1790006457 67.0814217904 58.7856870198C65.8601387317 60.3737679668 65.3536782282 62.8155834081 65.5563373547 66.0861944508C65.7548569167 69.2899991988 66.533052547 71.6376891232 67.8845113818 73.1531756753C69.2378768433 74.6593524472 71.277319697 75.408756718 74.0091523934 75.4083107665C76.7003256044 75.4078714524 78.6573982707 74.6688284584 79.8838918964 73.1859963266C81.1279210099 71.6860870108 81.7050503311 69.318940188 81.608532287 66.0578296644C81.5136740015 62.8527983587 80.790478435 60.4315212935 79.4334230679 58.8191232186C78.0779120424 57.1878724146 75.9763862551 56.3695849256 73.1375784384 56.3704767912C73.1375784384 56.3704767912 73.1375784384 56.3704767912 73.1375784384 56.3704767912M93.859579201 56.3639665796C91.0517514885 56.3648487122 88.9973511088 57.1726336805 87.702511757 58.7796030501C86.4157508428 60.3679620616 85.8111339899 62.8102012409 85.8797836082 66.0813745322C85.9470308314 69.2857233044 86.6271752518 71.6338080231 87.9169347818 73.1495472182C89.2089818711 74.6559736067 91.2183378632 75.405501494 93.9510333318 75.4050554017C96.6430585649 75.4046159484 98.6289901441 74.6654512881 99.9166439114 73.1823733672C101.222541953 71.682213973 101.898937526 69.3146691044 101.93607606 66.0530048169C101.972576023 62.8474225361 101.346310565 60.4257254242 100.054924337 58.8130451891C98.7658500402 57.1815072121 96.6993198054 56.363074421 93.859579201 56.3639665796C93.859579201 56.3639665796 93.859579201 56.3639665796 93.859579201 56.3639665796M29.7637387615 56.7665766742C29.7637387615 56.7665766742 30.0558430156 58.985256833 30.0558430156 58.985256833C30.0558430156 58.985256833 43.4522137592 58.9813244589 43.4522137592 58.9813244589C43.4522137592 58.9813244589 34.1748638327 75.0474393815 34.1748638327 75.0474393815C34.1748638327 75.0474393815 37.4454671485 75.0468959513 37.4454671485 75.0468959513C37.4454671485 75.0468959513 46.2132351112 59.5859962649 46.2132351112 59.5859962649C46.2132351112 59.5859962649 45.9317555372 56.7615462236 45.9317555372 56.7615462236C45.9317555372 56.7615462236 29.7637387615 56.7665766742 29.7637387615 56.7665766742C29.7637387615 56.7665766742 29.7637387615 56.7665766742 29.7637387615 56.7665766742M124.679418045 56.737044998C124.679418045 56.737044998 115.351838554 75.0339513457 115.351838554 75.0339513457C115.351838554 75.0339513457 118.428608868 75.0334401221 118.428608868 75.0334401221C118.428608868 75.0334401221 120.914818558 70.0691377537 120.914818558 70.0691377537C120.914818558 70.0691377537 130.875846062 70.0670908321 130.875846062 70.0670908321C130.875846062 70.0670908321 132.762986602 75.0310583802 132.762986602 75.0310583802C132.762986602 75.0310583802 135.995810585 75.0305212273 135.995810585 75.0305212273C135.995810585 75.0305212273 128.87437471 56.7357397963 128.87437471 56.7357397963C128.87437471 56.7357397963 124.679418045 56.737044998 124.679418045 56.737044998C124.679418045 56.737044998 124.679418045 56.737044998 124.679418045 56.737044998M141.079463094 56.7319423551C141.079463094 56.7319423551 139.457557072 75.0299460376 139.457557072 75.0299460376C139.457557072 75.0299460376 142.290400476 75.0294753439 142.290400476 75.0294753439C142.290400476 75.0294753439 143.771949703 59.3442278554 143.771949703 59.3442278554C143.771949703 59.3442278554 149.114439884 70.1229687089 149.114439884 70.1229687089C149.114439884 70.1229687089 150.940446263 70.1225943399 150.940446263 70.1225943399C150.940446263 70.1225943399 158.685577688 59.339896467 158.685577688 59.339896467C158.685577688 59.339896467 156.738480691 75.0270747097 156.738480691 75.0270747097C156.738480691 75.0270747097 159.772321452 75.026570619 159.772321452 75.026570619C159.772321452 75.026570619 162.157870867 56.7253841055 162.157870867 56.7253841055C162.157870867 56.7253841055 157.786881045 56.7267440774 157.786881045 56.7267440774C157.786881045 56.7267440774 150.547402634 67.0827839048 150.547402634 67.0827839048C150.547402634 67.0827839048 145.370877417 56.730607142 145.370877417 56.730607142C145.370877417 56.730607142 141.079463094 56.7319423551 141.079463094 56.7319423551C141.079463094 56.7319423551 141.079463094 56.7319423551 141.079463094 56.7319423551M73.2335500188 58.4667888765C74.235658209 58.4664906992 75.0590979352 58.6315906323 75.7052633113 58.9600662911C76.3611243344 59.2881187266 76.8854757859 59.77533402 77.2781975874 60.4207901172C77.6807187956 61.0729418913 77.9616115393 61.8649979164 78.1212126353 62.7956368162C78.29066051 63.7228113883 78.3987160693 64.8111749113 78.4435948545 66.0585808786C78.4888351826 67.3160359295 78.4591804391 68.3888040733 78.3571400601 69.2792477519C78.2654799777 70.1584288177 78.0527150786 70.9221594537 77.7172102225 71.5714950042C77.3922386503 72.2031447676 76.9183252802 72.6738603574 76.2954400041 72.9845717445C75.6733511402 73.2948858605 74.8815329666 73.4491854507 73.9194692551 73.4493574413C72.8960119712 73.4495404074 72.0630840255 73.2875891208 71.4220044037 72.96158458C70.7903258952 72.6351509457 70.2894380873 72.1597697558 69.9172950596 71.5361815128C69.511154879 70.8708801749 69.2288477318 70.1151938235 69.0687252166 69.26828767C68.9080509786 68.4184669126 68.7912584065 67.3589593835 68.7204714517 66.0854440432C68.6557196111 64.9205053549 68.6585032222 63.8442322347 68.7293638121 62.8594731552C68.8109785197 61.8708036466 69.0144649412 61.0669866062 69.3379932028 60.4481457383C69.6811396438 59.785795625 70.164563163 59.2899221216 70.7903019322 58.9615094895C71.4274110377 58.6326664804 72.2420042564 58.467083911 73.2335500188 58.4667888765C73.2335500188 58.4667888765 73.2335500188 58.4667888765 73.2335500188 58.4667888765M93.8696495407 58.460648605C94.8720867207 58.4603503298 95.6911265476 58.625478616 96.3240301213 58.9540119258C96.9666485306 59.2821218684 97.4711906339 59.7694224612 97.8375741035 60.4149913382C98.2134843256 61.0672567876 98.461993101 61.8594505118 98.5834905125 62.7902506897C98.7149808127 63.7175853794 98.7763662848 64.8061366629 98.7701238906 66.053756272C98.7638312128 67.3114256622 98.6922566547 68.3843754026 98.5536807675 69.2749696387C98.4259481058 70.154298852 98.1797490581 70.9181581864 97.8175206922 71.5676025056C97.4665550768 72.1993578116 96.9731986858 72.670151891 96.3373832685 72.9809150171C95.7023819734 73.2912807426 94.9039931426 73.4456059847 93.9416229451 73.4457780301C92.9178407347 73.4459610542 92.0933410648 73.2839825204 91.4654271009 72.9579237887C90.8469346273 72.6314358232 90.3633266471 72.1559757644 90.0166291186 71.5322833356C89.6376335532 70.8668705649 89.3841530092 70.1110577111 89.2586918719 69.2640088801C89.1327992875 68.4140444857 89.061467947 67.3543567481 89.0428603628 66.0806243754C89.0258392 64.9154862355 89.0727402225 63.8390280581 89.183988431 62.8540989942C89.3061534203 61.865258192 89.5405542806 61.0613019914 89.8895481232 60.4423532576C90.259949742 59.7798874182 90.7659550667 59.283926466 91.4053538033 58.9554562151C92.0561431579 58.6265554407 92.8777804082 58.4609437356 93.8696495407 58.460648605C93.8696495407 58.460648605 93.8696495407 58.460648605 93.8696495407 58.460648605M126.564256526 58.931651418C126.564256526 58.931651418 130.074205055 68.0040413804 130.074205055 68.0040413804C130.074205055 68.0040413804 121.948087427 68.0058440952 121.948087427 68.0058440952C121.948087427 68.0058440952 126.564256526 58.931651418 126.564256526 58.931651418C126.564256526 58.931651418 126.564256526 58.931651418 126.564256526 58.931651418M53.900689489 61.4549886572C53.900689489 61.4549886572 54.200276957 64.9931256911 54.200276957 64.9931256911C54.200276957 64.9931256911 57.9329315999 64.9922080231 57.9329315999 64.9922080231C57.9329315999 64.9922080231 57.6599053978 61.4539589982 57.6599053978 61.4539589982C57.6599053978 61.4539589982 53.900689489 61.4549886572 53.900689489 61.4549886572C53.900689489 61.4549886572 53.900689489 61.4549886572 53.900689489 61.4549886572M54.7637671247 71.6479615693C54.7637671247 71.6479615693 55.0513200791 75.0439706344 55.0513200791 75.0439706344C55.0513200791 75.0439706344 58.7085210629 75.0433629688 58.7085210629 75.0433629688C58.7085210629 75.0433629688 58.4464627167 71.6472505049 58.4464627167 71.6472505049C58.4464627167 71.6472505049 54.7637671247 71.6479615693 54.7637671247 71.6479615693C54.7637671247 71.6479615693 54.7637671247 71.6479615693 54.7637671247 71.6479615693" />
    </g>
    <path
       inkscape:connector-curvature="0"
       style="opacity:0.082;fill:#696969;fill-opacity:1;fill-rule:nonzero;stroke:none;stroke-width:4;stroke-linejoin:miter;stroke-miterlimit:4;stroke-dasharray:none;stroke-opacity:1"
       d="m 23.164808,892.42165 c -7.551426,0.004 -12.80002,5.07782 -11.790825,11.24312 0,0 8.626017,52.69739 8.626017,52.69739 0,0 152,0 152,0 0,0 8.57228,-52.76811 8.57228,-52.76811 1.00307,-6.17452 -4.26664,-11.25006 -11.83642,-11.24622 0,0 -145.571052,0.0738 -145.571052,0.0738 0,0 0,0 0,0"
       id="path6416" />
    <path
       style="opacity:0.099;fill:#696969;fill-opacity:1;fill-rule:nonzero;stroke:none;stroke-width:4;stroke-linejoin:miter;stroke-miterlimit:4;stroke-dasharray:none;stroke-opacity:1"
       d="M 20 96 L 95.919922 171.91992 L 161.34766 171.91992 C 167.35587 171.25346 172 166.1917 172 160 L 172 96 L 20 96 z "
       transform="translate(0,860.36216)"
       id="rect6426" />
    <path
       style="fill:#808080;fill-rule:evenodd;stroke:#000000;stroke-width:0.4;stroke-linecap:butt;stroke-linejoin:miter;stroke-opacity:1;stroke-miterlimit:4;stroke-dasharray:none;opacity:0.109"
       d="m 20,956.36216 152,0"
       id="path6434"
       inkscape:connector-curvature="0" />
  </g>
</svg>
